<mxfile host="app.diagrams.net" agent="Mozilla/5.0 (Windows NT 10.0; Win64; x64) AppleWebKit/537.36 (KHTML, like Gecko) Chrome/131.0.0.0 Safari/537.36 Edg/131.0.0.0" version="25.0.1">
  <diagram name="Page-1" id="6PqagodrafZfP_tb4eth">
    <mxGraphModel dx="2239" dy="764" grid="1" gridSize="10" guides="1" tooltips="1" connect="1" arrows="1" fold="1" page="1" pageScale="1" pageWidth="850" pageHeight="1100" math="0" shadow="0">
      <root>
        <mxCell id="0" />
        <mxCell id="1" parent="0" />
        <mxCell id="KVC-xJJjSSh8y78S3OTY-32" value="&lt;u&gt;adminID&lt;/u&gt;" style="whiteSpace=wrap;html=1;align=center;" vertex="1" parent="1">
          <mxGeometry x="40" y="120" width="100" height="40" as="geometry" />
        </mxCell>
        <mxCell id="KVC-xJJjSSh8y78S3OTY-33" value="A_name" style="whiteSpace=wrap;html=1;align=center;" vertex="1" parent="1">
          <mxGeometry x="140" y="120" width="100" height="40" as="geometry" />
        </mxCell>
        <mxCell id="KVC-xJJjSSh8y78S3OTY-35" value="A_email" style="whiteSpace=wrap;html=1;align=center;" vertex="1" parent="1">
          <mxGeometry x="240" y="120" width="100" height="40" as="geometry" />
        </mxCell>
        <mxCell id="KVC-xJJjSSh8y78S3OTY-36" value="A_role" style="whiteSpace=wrap;html=1;align=center;" vertex="1" parent="1">
          <mxGeometry x="340" y="120" width="100" height="40" as="geometry" />
        </mxCell>
        <mxCell id="KVC-xJJjSSh8y78S3OTY-37" value="&lt;font style=&quot;font-size: 15px;&quot;&gt;Administrator&lt;/font&gt;" style="text;strokeColor=none;fillColor=none;spacingLeft=4;spacingRight=4;overflow=hidden;rotatable=0;points=[[0,0.5],[1,0.5]];portConstraint=eastwest;fontSize=12;whiteSpace=wrap;html=1;" vertex="1" parent="1">
          <mxGeometry x="40" y="90" width="120" height="30" as="geometry" />
        </mxCell>
        <mxCell id="KVC-xJJjSSh8y78S3OTY-38" value="&lt;u&gt;A_username&lt;/u&gt;" style="whiteSpace=wrap;html=1;align=center;" vertex="1" parent="1">
          <mxGeometry x="40" y="240" width="100" height="40" as="geometry" />
        </mxCell>
        <mxCell id="KVC-xJJjSSh8y78S3OTY-39" value="&lt;u&gt;adminID&lt;/u&gt;" style="whiteSpace=wrap;html=1;align=center;" vertex="1" parent="1">
          <mxGeometry x="140" y="240" width="100" height="40" as="geometry" />
        </mxCell>
        <mxCell id="KVC-xJJjSSh8y78S3OTY-40" value="A_password" style="whiteSpace=wrap;html=1;align=center;" vertex="1" parent="1">
          <mxGeometry x="240" y="240" width="100" height="40" as="geometry" />
        </mxCell>
        <mxCell id="KVC-xJJjSSh8y78S3OTY-42" value="&lt;font style=&quot;font-size: 15px;&quot;&gt;ACC_Admin&lt;/font&gt;" style="text;strokeColor=none;fillColor=none;spacingLeft=4;spacingRight=4;overflow=hidden;rotatable=0;points=[[0,0.5],[1,0.5]];portConstraint=eastwest;fontSize=12;whiteSpace=wrap;html=1;" vertex="1" parent="1">
          <mxGeometry x="40" y="210" width="120" height="30" as="geometry" />
        </mxCell>
        <mxCell id="KVC-xJJjSSh8y78S3OTY-43" value="&lt;u&gt;lecturerID&lt;/u&gt;" style="whiteSpace=wrap;html=1;align=center;" vertex="1" parent="1">
          <mxGeometry x="40" y="360" width="100" height="40" as="geometry" />
        </mxCell>
        <mxCell id="KVC-xJJjSSh8y78S3OTY-44" value="L_falcuty" style="whiteSpace=wrap;html=1;align=center;" vertex="1" parent="1">
          <mxGeometry x="140" y="360" width="100" height="40" as="geometry" />
        </mxCell>
        <mxCell id="KVC-xJJjSSh8y78S3OTY-45" value="L_fullname" style="whiteSpace=wrap;html=1;align=center;" vertex="1" parent="1">
          <mxGeometry x="240" y="360" width="100" height="40" as="geometry" />
        </mxCell>
        <mxCell id="KVC-xJJjSSh8y78S3OTY-46" value="&lt;font style=&quot;font-size: 15px;&quot;&gt;Lecturer&lt;/font&gt;" style="text;strokeColor=none;fillColor=none;spacingLeft=4;spacingRight=4;overflow=hidden;rotatable=0;points=[[0,0.5],[1,0.5]];portConstraint=eastwest;fontSize=12;whiteSpace=wrap;html=1;" vertex="1" parent="1">
          <mxGeometry x="40" y="330" width="120" height="30" as="geometry" />
        </mxCell>
        <mxCell id="KVC-xJJjSSh8y78S3OTY-47" value="L_email" style="whiteSpace=wrap;html=1;align=center;" vertex="1" parent="1">
          <mxGeometry x="340" y="360" width="100" height="40" as="geometry" />
        </mxCell>
        <mxCell id="KVC-xJJjSSh8y78S3OTY-48" value="L_address" style="whiteSpace=wrap;html=1;align=center;" vertex="1" parent="1">
          <mxGeometry x="640" y="360" width="100" height="40" as="geometry" />
        </mxCell>
        <mxCell id="KVC-xJJjSSh8y78S3OTY-49" value="L_phoneNumber" style="whiteSpace=wrap;html=1;align=center;" vertex="1" parent="1">
          <mxGeometry x="440" y="360" width="100" height="40" as="geometry" />
        </mxCell>
        <mxCell id="KVC-xJJjSSh8y78S3OTY-50" value="L_BDate" style="whiteSpace=wrap;html=1;align=center;" vertex="1" parent="1">
          <mxGeometry x="540" y="360" width="100" height="40" as="geometry" />
        </mxCell>
        <mxCell id="KVC-xJJjSSh8y78S3OTY-51" value="&lt;u&gt;L_username&lt;/u&gt;" style="whiteSpace=wrap;html=1;align=center;" vertex="1" parent="1">
          <mxGeometry x="40" y="480" width="100" height="40" as="geometry" />
        </mxCell>
        <mxCell id="KVC-xJJjSSh8y78S3OTY-52" value="&lt;u&gt;lecturerID&lt;/u&gt;" style="whiteSpace=wrap;html=1;align=center;" vertex="1" parent="1">
          <mxGeometry x="140" y="480" width="100" height="40" as="geometry" />
        </mxCell>
        <mxCell id="KVC-xJJjSSh8y78S3OTY-53" value="L_password" style="whiteSpace=wrap;html=1;align=center;" vertex="1" parent="1">
          <mxGeometry x="240" y="480" width="100" height="40" as="geometry" />
        </mxCell>
        <mxCell id="KVC-xJJjSSh8y78S3OTY-54" value="&lt;font style=&quot;font-size: 15px;&quot;&gt;ACC_Lecturer&lt;/font&gt;" style="text;strokeColor=none;fillColor=none;spacingLeft=4;spacingRight=4;overflow=hidden;rotatable=0;points=[[0,0.5],[1,0.5]];portConstraint=eastwest;fontSize=12;whiteSpace=wrap;html=1;" vertex="1" parent="1">
          <mxGeometry x="40" y="450" width="120" height="30" as="geometry" />
        </mxCell>
        <mxCell id="KVC-xJJjSSh8y78S3OTY-55" value="&lt;u&gt;studentID&lt;/u&gt;" style="whiteSpace=wrap;html=1;align=center;" vertex="1" parent="1">
          <mxGeometry x="40" y="600" width="100" height="40" as="geometry" />
        </mxCell>
        <mxCell id="KVC-xJJjSSh8y78S3OTY-56" value="S_falcuty" style="whiteSpace=wrap;html=1;align=center;" vertex="1" parent="1">
          <mxGeometry x="140" y="600" width="100" height="40" as="geometry" />
        </mxCell>
        <mxCell id="KVC-xJJjSSh8y78S3OTY-57" value="S_fullname" style="whiteSpace=wrap;html=1;align=center;" vertex="1" parent="1">
          <mxGeometry x="240" y="600" width="100" height="40" as="geometry" />
        </mxCell>
        <mxCell id="KVC-xJJjSSh8y78S3OTY-58" value="&lt;font style=&quot;font-size: 15px;&quot;&gt;Student&lt;/font&gt;" style="text;strokeColor=none;fillColor=none;spacingLeft=4;spacingRight=4;overflow=hidden;rotatable=0;points=[[0,0.5],[1,0.5]];portConstraint=eastwest;fontSize=12;whiteSpace=wrap;html=1;" vertex="1" parent="1">
          <mxGeometry x="40" y="570" width="120" height="30" as="geometry" />
        </mxCell>
        <mxCell id="KVC-xJJjSSh8y78S3OTY-59" value="S_email" style="whiteSpace=wrap;html=1;align=center;" vertex="1" parent="1">
          <mxGeometry x="340" y="600" width="100" height="40" as="geometry" />
        </mxCell>
        <mxCell id="KVC-xJJjSSh8y78S3OTY-60" value="S_address" style="whiteSpace=wrap;html=1;align=center;" vertex="1" parent="1">
          <mxGeometry x="640" y="600" width="100" height="40" as="geometry" />
        </mxCell>
        <mxCell id="KVC-xJJjSSh8y78S3OTY-61" value="S_phoneNumber" style="whiteSpace=wrap;html=1;align=center;" vertex="1" parent="1">
          <mxGeometry x="440" y="600" width="100" height="40" as="geometry" />
        </mxCell>
        <mxCell id="KVC-xJJjSSh8y78S3OTY-62" value="S_BDate" style="whiteSpace=wrap;html=1;align=center;" vertex="1" parent="1">
          <mxGeometry x="540" y="600" width="100" height="40" as="geometry" />
        </mxCell>
        <mxCell id="KVC-xJJjSSh8y78S3OTY-63" value="Scores" style="whiteSpace=wrap;html=1;align=center;" vertex="1" parent="1">
          <mxGeometry x="740" y="600" width="100" height="40" as="geometry" />
        </mxCell>
        <mxCell id="KVC-xJJjSSh8y78S3OTY-64" value="&lt;u&gt;S_username&lt;/u&gt;" style="whiteSpace=wrap;html=1;align=center;" vertex="1" parent="1">
          <mxGeometry x="40" y="720" width="100" height="40" as="geometry" />
        </mxCell>
        <mxCell id="KVC-xJJjSSh8y78S3OTY-65" value="&lt;u&gt;studentID&lt;/u&gt;" style="whiteSpace=wrap;html=1;align=center;" vertex="1" parent="1">
          <mxGeometry x="140" y="720" width="100" height="40" as="geometry" />
        </mxCell>
        <mxCell id="KVC-xJJjSSh8y78S3OTY-66" value="S_password" style="whiteSpace=wrap;html=1;align=center;" vertex="1" parent="1">
          <mxGeometry x="240" y="720" width="100" height="40" as="geometry" />
        </mxCell>
        <mxCell id="KVC-xJJjSSh8y78S3OTY-67" value="&lt;font style=&quot;font-size: 15px;&quot;&gt;ACC_Student&lt;/font&gt;" style="text;strokeColor=none;fillColor=none;spacingLeft=4;spacingRight=4;overflow=hidden;rotatable=0;points=[[0,0.5],[1,0.5]];portConstraint=eastwest;fontSize=12;whiteSpace=wrap;html=1;" vertex="1" parent="1">
          <mxGeometry x="40" y="690" width="120" height="30" as="geometry" />
        </mxCell>
        <mxCell id="KVC-xJJjSSh8y78S3OTY-68" value="&lt;u&gt;quizID&lt;/u&gt;" style="whiteSpace=wrap;html=1;align=center;" vertex="1" parent="1">
          <mxGeometry x="40" y="840" width="100" height="40" as="geometry" />
        </mxCell>
        <mxCell id="KVC-xJJjSSh8y78S3OTY-69" value="numberQuiz" style="whiteSpace=wrap;html=1;align=center;" vertex="1" parent="1">
          <mxGeometry x="540" y="840" width="100" height="40" as="geometry" />
        </mxCell>
        <mxCell id="KVC-xJJjSSh8y78S3OTY-70" value="startDate" style="whiteSpace=wrap;html=1;align=center;" vertex="1" parent="1">
          <mxGeometry x="240" y="840" width="100" height="40" as="geometry" />
        </mxCell>
        <mxCell id="KVC-xJJjSSh8y78S3OTY-71" value="&lt;font style=&quot;font-size: 15px;&quot;&gt;Quiz&lt;/font&gt;" style="text;strokeColor=none;fillColor=none;spacingLeft=4;spacingRight=4;overflow=hidden;rotatable=0;points=[[0,0.5],[1,0.5]];portConstraint=eastwest;fontSize=12;whiteSpace=wrap;html=1;" vertex="1" parent="1">
          <mxGeometry x="40" y="810" width="120" height="30" as="geometry" />
        </mxCell>
        <mxCell id="KVC-xJJjSSh8y78S3OTY-72" value="dueDate" style="whiteSpace=wrap;html=1;align=center;" vertex="1" parent="1">
          <mxGeometry x="340" y="840" width="100" height="40" as="geometry" />
        </mxCell>
        <mxCell id="KVC-xJJjSSh8y78S3OTY-74" value="limitTime" style="whiteSpace=wrap;html=1;align=center;" vertex="1" parent="1">
          <mxGeometry x="440" y="840" width="100" height="40" as="geometry" />
        </mxCell>
        <mxCell id="KVC-xJJjSSh8y78S3OTY-75" value="&lt;u&gt;lecturerID&lt;/u&gt;" style="whiteSpace=wrap;html=1;align=center;" vertex="1" parent="1">
          <mxGeometry x="140" y="840" width="100" height="40" as="geometry" />
        </mxCell>
        <mxCell id="KVC-xJJjSSh8y78S3OTY-77" value="&lt;u&gt;quizID&lt;/u&gt;" style="whiteSpace=wrap;html=1;align=center;" vertex="1" parent="1">
          <mxGeometry x="40" y="960" width="100" height="40" as="geometry" />
        </mxCell>
        <mxCell id="KVC-xJJjSSh8y78S3OTY-78" value="&lt;u&gt;studentID&lt;/u&gt;" style="whiteSpace=wrap;html=1;align=center;" vertex="1" parent="1">
          <mxGeometry x="140" y="960" width="100" height="40" as="geometry" />
        </mxCell>
        <mxCell id="KVC-xJJjSSh8y78S3OTY-80" value="&lt;font style=&quot;font-size: 15px;&quot;&gt;Summit&lt;/font&gt;" style="text;strokeColor=none;fillColor=none;spacingLeft=4;spacingRight=4;overflow=hidden;rotatable=0;points=[[0,0.5],[1,0.5]];portConstraint=eastwest;fontSize=12;whiteSpace=wrap;html=1;" vertex="1" parent="1">
          <mxGeometry x="40" y="930" width="120" height="30" as="geometry" />
        </mxCell>
        <mxCell id="KVC-xJJjSSh8y78S3OTY-89" value="&lt;u&gt;adminID&lt;/u&gt;" style="whiteSpace=wrap;html=1;align=center;" vertex="1" parent="1">
          <mxGeometry x="40" y="1080" width="100" height="40" as="geometry" />
        </mxCell>
        <mxCell id="KVC-xJJjSSh8y78S3OTY-90" value="&lt;u&gt;lecturerID&lt;/u&gt;" style="whiteSpace=wrap;html=1;align=center;" vertex="1" parent="1">
          <mxGeometry x="140" y="1080" width="100" height="40" as="geometry" />
        </mxCell>
        <mxCell id="KVC-xJJjSSh8y78S3OTY-92" value="&lt;font style=&quot;font-size: 15px;&quot;&gt;A_Manage_L&lt;/font&gt;" style="text;strokeColor=none;fillColor=none;spacingLeft=4;spacingRight=4;overflow=hidden;rotatable=0;points=[[0,0.5],[1,0.5]];portConstraint=eastwest;fontSize=12;whiteSpace=wrap;html=1;" vertex="1" parent="1">
          <mxGeometry x="40" y="1050" width="120" height="30" as="geometry" />
        </mxCell>
        <mxCell id="KVC-xJJjSSh8y78S3OTY-93" value="&lt;u&gt;adminID&lt;/u&gt;" style="whiteSpace=wrap;html=1;align=center;" vertex="1" parent="1">
          <mxGeometry x="40" y="1200" width="100" height="40" as="geometry" />
        </mxCell>
        <mxCell id="KVC-xJJjSSh8y78S3OTY-94" value="&lt;u&gt;studentID&lt;/u&gt;" style="whiteSpace=wrap;html=1;align=center;" vertex="1" parent="1">
          <mxGeometry x="140" y="1200" width="100" height="40" as="geometry" />
        </mxCell>
        <mxCell id="KVC-xJJjSSh8y78S3OTY-96" value="&lt;font style=&quot;font-size: 15px;&quot;&gt;A_Manage_S&lt;/font&gt;" style="text;strokeColor=none;fillColor=none;spacingLeft=4;spacingRight=4;overflow=hidden;rotatable=0;points=[[0,0.5],[1,0.5]];portConstraint=eastwest;fontSize=12;whiteSpace=wrap;html=1;" vertex="1" parent="1">
          <mxGeometry x="40" y="1170" width="120" height="30" as="geometry" />
        </mxCell>
        <mxCell id="KVC-xJJjSSh8y78S3OTY-98" value="" style="edgeStyle=elbowEdgeStyle;elbow=vertical;endArrow=classic;html=1;curved=0;rounded=0;endSize=8;startSize=8;entryX=0.5;entryY=1;entryDx=0;entryDy=0;" edge="1" parent="1" target="KVC-xJJjSSh8y78S3OTY-32">
          <mxGeometry width="50" height="50" relative="1" as="geometry">
            <mxPoint x="190" y="240" as="sourcePoint" />
            <mxPoint x="240" y="190" as="targetPoint" />
          </mxGeometry>
        </mxCell>
        <mxCell id="KVC-xJJjSSh8y78S3OTY-99" value="" style="edgeStyle=elbowEdgeStyle;elbow=vertical;endArrow=classic;html=1;curved=0;rounded=0;endSize=8;startSize=8;exitX=0.5;exitY=0;exitDx=0;exitDy=0;entryX=0.5;entryY=1;entryDx=0;entryDy=0;" edge="1" parent="1" source="KVC-xJJjSSh8y78S3OTY-52" target="KVC-xJJjSSh8y78S3OTY-43">
          <mxGeometry width="50" height="50" relative="1" as="geometry">
            <mxPoint x="410" y="590" as="sourcePoint" />
            <mxPoint x="460" y="540" as="targetPoint" />
            <Array as="points">
              <mxPoint x="180" y="440" />
            </Array>
          </mxGeometry>
        </mxCell>
        <mxCell id="KVC-xJJjSSh8y78S3OTY-100" value="" style="edgeStyle=elbowEdgeStyle;elbow=vertical;endArrow=classic;html=1;curved=0;rounded=0;endSize=8;startSize=8;entryX=0.5;entryY=1;entryDx=0;entryDy=0;" edge="1" parent="1" source="KVC-xJJjSSh8y78S3OTY-65" target="KVC-xJJjSSh8y78S3OTY-55">
          <mxGeometry width="50" height="50" relative="1" as="geometry">
            <mxPoint x="410" y="590" as="sourcePoint" />
            <mxPoint x="460" y="540" as="targetPoint" />
          </mxGeometry>
        </mxCell>
        <mxCell id="KVC-xJJjSSh8y78S3OTY-105" value="" style="edgeStyle=segmentEdgeStyle;endArrow=classic;html=1;curved=0;rounded=0;endSize=8;startSize=8;exitX=0.5;exitY=0;exitDx=0;exitDy=0;" edge="1" parent="1" source="KVC-xJJjSSh8y78S3OTY-75" target="KVC-xJJjSSh8y78S3OTY-43">
          <mxGeometry width="50" height="50" relative="1" as="geometry">
            <mxPoint x="169.93" y="800" as="sourcePoint" />
            <mxPoint x="50" y="430" as="targetPoint" />
            <Array as="points">
              <mxPoint x="170" y="840" />
              <mxPoint x="170" y="790" />
              <mxPoint x="-50" y="790" />
              <mxPoint x="-50" y="450" />
              <mxPoint x="50" y="450" />
            </Array>
          </mxGeometry>
        </mxCell>
        <mxCell id="KVC-xJJjSSh8y78S3OTY-107" value="" style="edgeStyle=segmentEdgeStyle;endArrow=classic;html=1;curved=0;rounded=0;endSize=8;startSize=8;exitX=0.413;exitY=0.876;exitDx=0;exitDy=0;entryX=0.5;entryY=1;entryDx=0;entryDy=0;exitPerimeter=0;" edge="1" parent="1" source="KVC-xJJjSSh8y78S3OTY-80" target="KVC-xJJjSSh8y78S3OTY-68">
          <mxGeometry width="50" height="50" relative="1" as="geometry">
            <mxPoint x="410" y="1040" as="sourcePoint" />
            <mxPoint x="460" y="990" as="targetPoint" />
          </mxGeometry>
        </mxCell>
        <mxCell id="KVC-xJJjSSh8y78S3OTY-108" value="" style="edgeStyle=segmentEdgeStyle;endArrow=classic;html=1;curved=0;rounded=0;endSize=8;startSize=8;exitX=0.431;exitY=0.929;exitDx=0;exitDy=0;exitPerimeter=0;" edge="1" parent="1" source="KVC-xJJjSSh8y78S3OTY-92" target="KVC-xJJjSSh8y78S3OTY-32">
          <mxGeometry width="50" height="50" relative="1" as="geometry">
            <mxPoint x="94" y="1040" as="sourcePoint" />
            <mxPoint x="80" y="170" as="targetPoint" />
            <Array as="points">
              <mxPoint x="92" y="1050" />
              <mxPoint x="-80" y="1050" />
              <mxPoint x="-80" y="200" />
              <mxPoint x="80" y="200" />
            </Array>
          </mxGeometry>
        </mxCell>
        <mxCell id="KVC-xJJjSSh8y78S3OTY-109" value="" style="edgeStyle=segmentEdgeStyle;endArrow=classic;html=1;curved=0;rounded=0;endSize=8;startSize=8;exitX=0.5;exitY=0;exitDx=0;exitDy=0;entryX=0.1;entryY=1;entryDx=0;entryDy=0;entryPerimeter=0;" edge="1" parent="1" source="KVC-xJJjSSh8y78S3OTY-93" target="KVC-xJJjSSh8y78S3OTY-32">
          <mxGeometry width="50" height="50" relative="1" as="geometry">
            <mxPoint x="410" y="1260" as="sourcePoint" />
            <mxPoint x="460" y="1210" as="targetPoint" />
            <Array as="points">
              <mxPoint x="90" y="1170" />
              <mxPoint x="-120" y="1170" />
              <mxPoint x="-120" y="180" />
              <mxPoint x="50" y="180" />
            </Array>
          </mxGeometry>
        </mxCell>
        <mxCell id="KVC-xJJjSSh8y78S3OTY-111" value="" style="edgeStyle=segmentEdgeStyle;endArrow=classic;html=1;curved=0;rounded=0;endSize=8;startSize=8;exitX=0.5;exitY=0;exitDx=0;exitDy=0;entryX=0.25;entryY=1;entryDx=0;entryDy=0;" edge="1" parent="1" source="KVC-xJJjSSh8y78S3OTY-78" target="KVC-xJJjSSh8y78S3OTY-55">
          <mxGeometry width="50" height="50" relative="1" as="geometry">
            <mxPoint x="410" y="740" as="sourcePoint" />
            <mxPoint x="460" y="690" as="targetPoint" />
            <Array as="points">
              <mxPoint x="190" y="930" />
              <mxPoint y="930" />
              <mxPoint y="670" />
              <mxPoint x="65" y="670" />
            </Array>
          </mxGeometry>
        </mxCell>
        <mxCell id="KVC-xJJjSSh8y78S3OTY-112" value="" style="edgeStyle=segmentEdgeStyle;endArrow=classic;html=1;curved=0;rounded=0;endSize=8;startSize=8;exitX=0.5;exitY=0;exitDx=0;exitDy=0;entryX=0.122;entryY=0.987;entryDx=0;entryDy=0;entryPerimeter=0;" edge="1" parent="1" source="KVC-xJJjSSh8y78S3OTY-94" target="KVC-xJJjSSh8y78S3OTY-55">
          <mxGeometry width="50" height="50" relative="1" as="geometry">
            <mxPoint x="410" y="860" as="sourcePoint" />
            <mxPoint x="460" y="810" as="targetPoint" />
            <Array as="points">
              <mxPoint x="190" y="1150" />
              <mxPoint x="-190" y="1150" />
              <mxPoint x="-190" y="660" />
              <mxPoint x="52" y="660" />
            </Array>
          </mxGeometry>
        </mxCell>
        <mxCell id="KVC-xJJjSSh8y78S3OTY-113" value="" style="edgeStyle=segmentEdgeStyle;endArrow=classic;html=1;curved=0;rounded=0;endSize=8;startSize=8;exitX=0.5;exitY=0;exitDx=0;exitDy=0;entryX=0.25;entryY=1;entryDx=0;entryDy=0;" edge="1" parent="1" source="KVC-xJJjSSh8y78S3OTY-90" target="KVC-xJJjSSh8y78S3OTY-43">
          <mxGeometry width="50" height="50" relative="1" as="geometry">
            <mxPoint x="410" y="740" as="sourcePoint" />
            <mxPoint x="460" y="690" as="targetPoint" />
            <Array as="points">
              <mxPoint x="190" y="1040" />
              <mxPoint x="-220" y="1040" />
              <mxPoint x="-220" y="430" />
              <mxPoint x="65" y="430" />
            </Array>
          </mxGeometry>
        </mxCell>
      </root>
    </mxGraphModel>
  </diagram>
</mxfile>
